<svg xmlns="http://www.w3.org/2000/svg" data-name="Layer 1" viewBox="0 0 100 125" x="0px" y="0px"><path d="M22,75a3,3,0,0,0,0,6,11,11,0,0,0,7.33-2.83l.67-.6.67.6A11,11,0,0,0,38,81a3,3,0,0,0,0-6,5,5,0,0,1-5-5V59a5,5,0,0,1,5-5,3,3,0,0,0,0-6,11,11,0,0,0-7.33,2.83l-.67.6-.67-.6A11,11,0,0,0,22,48a3,3,0,0,0,0,6,5,5,0,0,1,5,5V70A5,5,0,0,1,22,75Z"/><circle cx="53" cy="78" r="3"/><path d="M81,36.66a7,7,0,0,0-2.05-4.95L68.29,21a7,7,0,0,0-5-2H40a9,9,0,0,0-9,9v9a3,3,0,0,0,6,0V28a3,3,0,0,1,3-3H63.76L75,36.24V72a3,3,0,0,1-3,3H68a3,3,0,0,0,0,6h4a9,9,0,0,0,9-9Z"/></svg>