<svg xmlns="http://www.w3.org/2000/svg" version="1.1" viewBox="-5.0 -10.0 110.0 135.0">
 <g>
  <path d="m94.066 46.27c-0.015625-0.89844-0.0625-1.8008-0.14844-2.6914-0.082031-0.87891-0.19531-1.7578-0.34375-2.6328-0.14453-0.85937-0.32031-1.7148-0.53516-2.5625-0.21094-0.83984-0.45312-1.6719-0.73047-2.4922-0.27344-0.81641-0.58594-1.6211-0.92578-2.4141-0.33984-0.78906-0.71094-1.5664-1.1133-2.3242-0.40625-0.76172-0.83984-1.5078-1.3047-2.2344-0.46484-0.73047-0.96094-1.4414-1.4844-2.1367-0.52734-0.69531-1.082-1.3789-1.6602-2.0312-0.58594-0.66406-1.1953-1.3086-1.8281-1.9297-0.32031-0.3125-0.64453-0.62109-0.97656-0.92578-0.082031-0.074219-0.16406-0.15234-0.25-0.22656-0.035156-0.03125-0.074219-0.066407-0.10938-0.10156-0.027344-0.023437-0.058594-0.046875-0.085938-0.070312-0.10547-0.09375-0.21484-0.1875-0.32422-0.27734-0.19922-0.16797-0.41016-0.32812-0.61719-0.48828-0.1875-0.14062-0.37109-0.27734-0.5625-0.41406-1.6484-1.1875-3.7617-1.5156-5.6914-0.88281-0.71875-0.29688-1.4297-0.59766-2.1445-0.89453-0.92188-0.38281-1.8398-0.76562-2.7656-1.1328-0.95312-0.38281-1.918-0.74609-2.8867-1.0938-0.53906-0.19531-1.0742-0.375-1.6172-0.55469-5.7344-1.6602-10.539-0.77344-14.602 3.6953-0.26172 0.28516-0.82422 0.42188-1.2461 0.42578-5.1523 0.035156-10.301 0.03125-15.453 0.042969-3.7148 0.007813-7.207 0.9375-10.453 2.7148-5.5156 3.0234-8.8945 7.7773-10.629 13.695-1.0078 3.4258-1.5859 6.9766-2.4844 10.434-0.92578 3.5664-2.0977 7.0352-4.75 9.7969-0.9375 0.92578-0.90234 2.4453 0.070312 3.332 0.97266 0.88281 2.4922 0.76953 3.3203-0.25781 1.4531-2.0664 2.6758-4.2266 3.6914-6.543 0 8.3242 0.003907 16.648-0.003906 24.973v4.4844c0 0.88281 0.71875 1.6016 1.6016 1.6016 4.0547 0.003906 8.1094 0.003906 12.164 0.003906 0.88672 0 1.6055-0.71875 1.6055-1.6016v-2.5508-0.57422c0.011719-3.3594 0.007812-6.7148 0.015625-10.07 0.003906-0.18359 0.027344-0.39062 0.10938-0.54688 0.60547-1.0898 1.2227-2.1641 1.9648-3.4688 0.10938-0.19531 0.23828-0.26953 0.46484-0.26953h20.047c0.25391 0.007812 0.5625 0.26562 0.73438 0.49609 0.66406 0.89844 1.0273 1.8945 1.0156 3.0547-0.035156 3.4805-0.023437 6.9609 0.011719 10.438v0.94141 2.5625c0 0.88672 0.71875 1.6016 1.6055 1.6016 4.2891 0.003906 7.8477 0.003906 11.969 0.007812 0 0 1.6562-0.10938 1.6523-1.6719l-0.011718-3.3281c0.03125-6.4688-0.042969-12.941 0.066406-19.41 0.046875-3.0625 1.1875-5.7617 3.6953-7.7227 2.8398-2.2188 6.3281-1.418 7.4844 1.7891 0.89453 2.4883 0.38672 5.0742 0.38281 7.6445 0 0.16016 0 0.31641 0.003906 0.47656-0.21875-0.32031-0.48047-0.62891-0.75-0.89062-1.1367-1.082-2.5078-1.3008-3.9453-0.92188-2.2656 0.59766-3.6719 2.1367-4.2305 4.3711-1.1641 4.6445 1.9766 9.5156 6.8594 10.574 5.0547 1.0977 9.082-0.82813 12.254-4.6445 2.5977-3.1289 3.7266-6.8906 3.8125-10.91 0.125-4.4102 0.035156-9.8398 0.0625-13.262zm-4.7305 12.25c0 2.8516-0.58594 5.5625-2.0781 8.0117-1.6172 2.6445-3.8398 4.3945-7.1289 4.2578-2.332-0.10156-4.2578-1.6055-4.6172-3.7148-0.10938-0.64844 0.10547-1.4258 0.39453-2.0391 0.30469-0.64844 0.88672-0.60938 1.3438-0.058594 1.9883 2.3945 4.5625 2.3125 6.2305-0.32031 0.58203-0.91797 1.0586-2.0703 1.1016-3.1328 0.10156-2.5938 0.26953-5.2617-0.21094-7.7852-1.3555-7.1172-9.1211-9.9297-14.906-5.5469-3.6953 2.793-5.6172 6.5898-5.7266 11.164-0.14844 6.4375-0.0625 12.879-0.078125 19.316-0.003906 1.3398-0.007812 1.3438-1.3477 1.3477h-4.418-0.046875v-1.0508c-0.003906-3.1406-0.10938-6.2891 0.03125-9.4219 0.10938-2.3555-0.55469-4.4023-1.8594-6.2695-0.38672-0.55859-0.78125-1.1172-1.1719-1.6719-0.5-0.70703-1.3125-1.1289-2.1836-1.1289h-22.703c-0.9375 0-1.8047 0.48828-2.2891 1.293-0.88672 1.4727-1.7578 2.9492-2.5703 4.4609-0.57422 1.0586-0.85547 2.3789-0.90625 3.5898-0.12891 3.0742-0.066406 6.1562-0.03125 9.2344v0.96875h-6.2031v-2.6758c-0.015626-11.969 0.13672-23.938-0.10547-35.902-0.17969-8.8477 7.082-15.473 13.207-16.68 0.79688-0.15625 1.6094-0.30469 2.418-0.3125 5.0273-0.03125 10.055-0.019531 15.078-0.019531 0.18359 0 0.36719 0.015625 0.67578 0.027344-0.078125 0.59375-0.15234 1.1367-0.22656 1.6758-0.69141 5.1562 0.47266 9.9961 2.6328 14.621 0.79297 1.6914 1.793 3.3164 2.9258 4.8008 1.9805 2.5977 4.7422 3.2148 7.7734 2.3086 4.9141-1.4609 8.2812-4.7031 10.246-9.4102 0.58984-1.418 0.40625-2.2539-0.51563-2.957-0.98047-0.75391-2.1484-0.66797-2.9258 0.30078-0.40625 0.51172-0.71875 1.1055-1.0273 1.6875-1.4453 2.7109-3.5898 4.6445-6.4141 5.832-1.6289 0.68359-2.8164 0.39453-3.8906-1.0273-2.0898-2.7578-3.2148-5.9453-3.9023-9.2891-0.49609-2.3867-0.55469-4.8125-0.14844-7.2148 0.77734-4.6055 4.7812-7.2617 9.4688-5.8906 3.7148 1.0859 7.2852 2.6914 10.879 4.1602 1.2812 0.52344 1.6094 0.71875 2.2148 0.20312 0.5625-0.47656 1.3789-0.50391 1.9727-0.074219 0.41797 0.30469 0.83594 0.61719 1.2266 0.96094 6.3203 5.6602 9.6289 12.738 9.8047 21.227 0.074219 4.0391 0.007813 8.0938 0.007813 12.145z"/>
  <path d="m81.008 35.719c-1.1875 0.015625-2.0664 0.91406-2.0508 2.0977 0.019531 1.1602 0.95312 2.0703 2.1133 2.0586 1.1602-0.011719 2.0508-0.9375 2.0391-2.1211-0.007813-1.1875-0.89844-2.0469-2.1016-2.0352z"/>
 </g>
</svg>