<svg xmlns="http://www.w3.org/2000/svg" xmlns:xlink="http://www.w3.org/1999/xlink" version="1.1" x="0px" y="0px" viewBox="0 0 96 120" style="enable-background:new 0 0 96 96;" xml:space="preserve"><path d="M73.1,39.8c0-5.2-2.5-10.1-6.6-13.1c-1.4-1-2.2-2.9-2.1-5c0.1-1.1,0-2.3-0.2-3.4C63,11,56.8,5.3,49.6,4.6  c-4.7-0.4-9.1,1-12.6,4.2c-3.4,3.1-5.4,7.5-5.4,12.1c0,0.4,0,0.7,0,1.1c0.1,1.8-0.7,3.5-2.1,4.7c-0.4,0.3-0.8,0.6-1.2,0.9l0,0  c-3.5,3.1-5.5,7.5-5.5,12.2c0,3.7,1.2,7.2,3.5,10.1c0.3,0.4,0.4,0.8,0.4,1.2v8.5c0,3.2,2.4,5.9,5.4,6.1c0.2,0,0.4,0,0.6,0  c1.5,0,2.9-0.6,4-1.6c1.2-1.1,2-2.8,2-4.4v-6.5c0-1.1,0.8-2.1,1.8-2.2c0.6-0.1,1.1,0.1,1.5,0.5c0.4,0.4,0.7,0.9,0.7,1.6  c0,2.6,1.6,4.9,4,5.7c1.9,0.6,3.9,0.3,5.5-0.8c1.6-1.1,2.5-2.9,2.5-4.9c0-1.1,0.9-2,2-2H63L48,87.2l-8.4-20.1c0,0-0.1,0.1-0.1,0.1  c-1,0.9-2.1,1.6-3.4,2l8.3,20c0.6,1.4,2,2.4,3.5,2.4c0,0,0,0,0,0c1.5,0,2.9-0.9,3.5-2.4l15.1-36.3C70.7,49.8,73.1,45,73.1,39.8z   M50.8,53.1c0,0.7-0.3,1.2-0.8,1.6c-0.3,0.2-1,0.6-1.9,0.3c-0.7-0.2-1.3-1-1.3-2c0-1.7-0.7-3.3-2-4.4c-1.2-1.1-2.9-1.7-4.6-1.5  c-3,0.3-5.4,3-5.4,6.1v6.5c0,0.6-0.2,1.1-0.7,1.5c-0.4,0.4-1,0.6-1.5,0.5c-1-0.1-1.8-1-1.8-2.2v-8.5c0-1.3-0.5-2.6-1.3-3.7  c-1.7-2.2-2.6-4.8-2.6-7.6c0-3.9,1.8-7.5,4.9-9.9c0,0,0.1-0.1,0.1-0.1c2.1-1.6,4.7-2.4,7.3-2.4c0.5,0,1,0,1.4,0.1  c2.7,0.3,5.2,1.5,7.2,3.4l2.8-2.9c-2.6-2.5-6-4.1-9.5-4.5c-0.6-0.1-1.2-0.1-1.9-0.1c-1.3,0-2.5,0.2-3.7,0.5c0.1-0.7,0.2-1.4,0.1-2.2  c0-0.3,0-0.5,0-0.8c0-3.5,1.5-6.8,4-9.2c2.6-2.4,6-3.5,9.5-3.2c5.5,0.5,10.1,4.8,11,10.3c0.1,0.9,0.2,1.7,0.2,2.6  c-0.2,3.4,1.2,6.5,3.7,8.4c3.2,2.4,5,6,5,9.9c0,2.7-0.8,5.2-2.4,7.3h-9.9C53.5,47.1,50.8,49.8,50.8,53.1z"/></svg>