<svg xmlns="http://www.w3.org/2000/svg" data-name="Layer 1" viewBox="0 0 100 125" x="0px" y="0px"><path d="M60.49,28.53H10.44A45,45,0,0,1,49,5Z"/><path d="M87.29,24.81,74.06,47.89,63.24,29.15l0-.09L51.42,5A45,45,0,0,1,87.29,24.81Z"/><path d="M25.53,50.1,11.73,73.68a45,45,0,0,1-2.4-42.95H36.71L25.85,49.54Z"/><path d="M51.4,95,50,95A44.94,44.94,0,0,1,13.09,75.74l13.7-23.45L37.66,71.11l.32.55Z"/><path d="M89.45,71.66A45,45,0,0,1,53.86,94.83L40.52,71.66Z"/><path d="M95,50a44.81,44.81,0,0,1-4.42,19.46H64.16L75.34,50.1h0L88.62,26.91A44.74,44.74,0,0,1,95,50Z"/></svg>