<svg xmlns="http://www.w3.org/2000/svg" enable-background="new 0 0 24 24" viewBox="0 0 24 24" id="netflix"><path d="M11.046,2.529l-0.695-1.961c-0.099-0.285-0.162-0.463-0.17-0.48l-0.03-0.087h0L10.15,0H5.505L5.502,0.002H5.5v11.992c0,6.595,0.007,11.997,0.015,12.005c0.008,0.008,0.409-0.03,0.892-0.086c0.482-0.06,1.15-0.13,1.485-0.16c0.509-0.05,2.033-0.15,2.21-0.15c0.051,0,0.055-0.27,0.062-5.081l0.008-5.06l0.369,1.057c1.011,2.909,1.79,5.15,2.322,6.68l0,0.004c0.546,1.567,0.838,2.403,0.841,2.407c0.004,0.004,0.315,0.024,0.69,0.042c1.138,0.05,2.546,0.18,3.618,0.31c0.246,0.03,0.459,0.04,0.472,0.03c0.013-0.01,0.02-5.421,0.017-12.012L18.491,0.01h-4.627v0.002l-0.01,5.307l-0.008,5.302l0,0l-0.429-1.23l-2.187-6.289l0.001-0.026L11.046,2.529z"></path></svg>