<svg xmlns="http://www.w3.org/2000/svg" data-name="Layer 1" viewBox="0 0 100 125" x="0px" y="0px"><path d="M66.64,48.94a4,4,0,1,0,7-3.87A52,52,0,0,0,28,18h0a8,8,0,0,0-8,8V70a8,8,0,0,0,8,8H42a6,6,0,0,0,6-6V70A20,20,0,0,0,28,50V42a27.93,27.93,0,0,1,21.13,9.63,4,4,0,0,0,3,1.37h0a4,4,0,0,0,3.08-6.56A35.91,35.91,0,0,0,28,34V26A44,44,0,0,1,66.64,48.94ZM40,70H28V58A12,12,0,0,1,40,70Z"/><path d="M78.83,59.17a4,4,0,0,0-5.66,0L68,64.34l-5.17-5.17a4,4,0,0,0-5.66,0h0a4,4,0,0,0,0,5.66L62.34,70l-5.17,5.17a4,4,0,0,0,0,5.66h0a4,4,0,0,0,5.66,0L68,75.66l5.17,5.17a4,4,0,0,0,5.66-5.66L73.66,70l5.17-5.17A4,4,0,0,0,78.83,59.17Z"/></svg>