<?xml version="1.0" encoding="utf-8"?>

<!-- Uploaded to: SVG Repo, www.svgrepo.com, Generator: SVG Repo Mixer Tools -->
<svg width="800px" height="800px" viewBox="0 0 192 192" xmlns="http://www.w3.org/2000/svg" fill="none">

<g clip-path="url(#a)">

<path d="M100.242 23.743a6 6 0 0 0-8.485 0L23.743 91.757a6 6 0 0 0 0 8.485l68.014 68.015a6 6 0 0 0 8.485 0l68.015-68.015a6 6 0 0 0 0-8.485l-68.015-68.014ZM80 71.83c0-2.44 2.758-3.86 4.744-2.442l33.838 24.17a3 3 0 0 1 0 4.883l-33.838 24.171C82.758 124.03 80 122.611 80 120.17V71.83Z"/>

</g>

<defs>

<clipPath id="a">

<path fill="#ffffff" d="M0 0h192v192H0z"/>

</clipPath>

</defs>

</svg>