<svg xmlns="http://www.w3.org/2000/svg" viewBox="0 0 100 125" x="0px" y="0px"><path d="M93.89,40.9c-2.07-7.46-5.78-14.27-11.04-20.25-3.22-3.67-6.52-5.85-10.09-6.68-4.56-1.06-9.73-2.26-14.79-2.46-12.46-.51-24.21,3.6-35.96,12.55-3.54,2.7-6.4,6.26-8.74,10.9-1.6,3.16-2.54,6.58-3.44,9.89-.19,.69-.38,1.37-.57,2.06-2.2,7.76-3.54,15.99-3.98,24.48-.02,.54-.04,1.03-.06,1.49-.18,3.64-.23,4.62,5.73,4.95,.73,.04,1.49,.04,2.22,.04h.44c.47,.02,.95,0,1.43,.01,1.18,.02,2.4,.03,3.59-.06,.15-.01,.29-.02,.44-.02,1.53,0,2.6,.68,3.45,2.15,3.44,6.01,8.96,9.06,16.42,9.06h.08c3.16,0,6.38-.47,9.49-.91l.19-.03c4.72-.67,9.07-2.72,13.32-6.28,.54-.45,1.06-1.01,1.57-1.55,1.04-1.11,2.13-2.26,3.45-2.61,1.35-.36,2.89,.12,4.38,.58,.68,.21,1.39,.43,2.05,.56,.98,.19,1.97,.36,2.96,.53,1.61,.28,3.27,.56,4.89,.94,1.96,.46,2.38,.41,3.31-1.21,.43-.76,.79-1.59,1.13-2.39,.35-.8,.7-1.64,1.14-2.41,3.47-6.11,5.78-12.83,7.07-20.53,.79-4.73,1.08-8.71-.06-12.8Zm-25.72,5.6c-.05,.63-.09,1.28-.13,1.94-.09,1.5-.19,3.06-.4,4.6-.46,3.41-.98,6.88-1.47,10.23-.31,2.05-.61,4.11-.91,6.16-.22,1.5-.85,2.68-2,3.72-.66,.59-1.22,1.33-1.76,2.03-.46,.6-.93,1.21-1.47,1.76-3.82,3.9-8.91,6.15-15.55,6.87-.71,.08-1.44,.11-2.14,.14-.95,.04-1.92,.09-2.86,.24-.41,.07-.82,.1-1.23,.1-5.19,0-10.2-5.13-11.86-9.07-1.29-3.06-.69-5.82-.12-8.49,.14-.67,.29-1.34,.4-2.02,.21-1.24,.48-2.5,.73-3.71,.34-1.63,.7-3.31,.93-4.98,.27-1.96,.97-2.8,2.85-3.46,7.93-2.81,14.02-6.87,18.59-12.41,.38-.46,.79-.9,1.2-1.35,.19-.21,.39-.42,.58-.64l.17-.19,.21,.14c.87,.55,1.7,1.1,2.51,1.64,1.78,1.18,3.46,2.3,5.25,3.2,1.72,.87,3.56,1.53,5.51,2.23,.89,.32,1.81,.65,2.75,1.01l.21,.08-.02,.22Zm18.16,16.61c-.79,2.17-1.73,4.32-2.63,6.4-.46,1.06-.92,2.11-1.36,3.17-.58,1.39-1.46,2.06-2.73,2.06-.26,0-.54-.03-.84-.09-.84-.16-1.71-.26-2.55-.35-1.99-.22-4.04-.46-6.01-1.49l-.18-.1,.02-.21c.03-.22,.05-.43,.07-.64,.04-.46,.09-.93,.18-1.38,1.53-7.97,3.06-16.48,3.44-25.2,.11-2.52-.23-2.99-2.64-3.63-.56-.15-1.12-.28-1.68-.4-1.07-.24-2.17-.49-3.21-.88-3.63-1.33-7.67-3.11-9.83-7.45-.56-1.12-1.34-1.84-2.27-2.07-.93-.24-1.96,.02-2.98,.73-1.53,1.07-2.59,2.12-3.24,3.2-2.69,4.48-6.75,8.12-12.78,11.44-2.35,1.3-5.13,2.71-8.39,3.01-2,.18-3.21,1.5-3.4,3.72l-.06,.64c-.18,2.02-.36,4.12-.7,6.16-.51,3.03-1.08,6.07-1.64,9.01-.23,1.21-.46,2.41-.68,3.6l-.04,.19-.19,.04c-3.78,.89-7.26,.93-9.32,.11l-.19-.07v-.2c-.04-4.7,.43-9.75,1.39-14.99,.59-3.24,1.4-6.48,2.19-9.62,.33-1.31,.65-2.63,.97-3.94,2.24-9.4,7.68-16.32,16.63-21.17,7.27-3.94,14.14-6.27,21-7.13,.7-.09,1.44-.09,2.14,0,4.71,.6,9.45,1.22,14.1,1.86,2.72,.37,5.31,1.71,7.7,3.98,7.44,7.08,11.68,15.4,12.59,24.74,.62,6.3-1.22,12.37-2.89,16.95Z"/><path d="M59.62,61.29c-1.38,.39-2.09,1.1-2.32,2.33-.18,.97-.56,1.88-1.08,2.55-3.06,3.99-7.31,6.24-12.64,6.67-1.19,.09-2.56-.64-3.37-1.3-2.02-1.63-2.7-4.01-3.1-6.12-.42-2.23-1.45-2.64-2.33-2.64-.13,0-.26,0-.38,.02-1.56,.18-2.96,1.81-2.93,3.42,.12,6.22,5.73,11.48,12.27,11.5,7.01-.71,12.49-3.54,16.27-8.41,1.35-1.74,2.01-4.15,2.39-5.82,.17-.73,.01-1.37-.44-1.79-.54-.51-1.41-.66-2.35-.4Z"/><path d="M51.06,60.67c1.35,.32,2.17-.15,2.59-1.49,.49-1.56,.85-3.15,1.14-4.43,.1-.46,.2-.88,.29-1.23,.17-3.2-1-3.7-2.16-3.78-.06,0-.12,0-.18,0-1.49,0-2.83,1.13-3.02,2.59-.2,1.46-.38,2.92-.56,4.38l-.15,1.15c-.2,1.58,.41,2.42,2.05,2.82Z"/><path d="M42.54,60.84c1.75,.23,2.08-.01,2.54-1.83,.38-1.52,.65-3.1,.91-4.63l.04-.26c.08-.49,.25-2.14-1.14-2.66-.68-.25-1.75-.03-2.47,.33-.61,.31-1.24,1.05-1.47,1.73-.33,1-.5,2.05-.63,2.9-.05,.29-.09,.56-.13,.78v.68c0,.24,0,.36,0,.47,.08,1.91,.38,2.24,2.35,2.49Z"/></svg>