<svg xmlns:dc="http://purl.org/dc/elements/1.1/" xmlns:cc="http://creativecommons.org/ns#" xmlns:rdf="http://www.w3.org/1999/02/22-rdf-syntax-ns#" xmlns:svg="http://www.w3.org/2000/svg" xmlns="http://www.w3.org/2000/svg" xmlns:sodipodi="http://sodipodi.sourceforge.net/DTD/sodipodi-0.dtd" xmlns:inkscape="http://www.inkscape.org/namespaces/inkscape" viewBox="0 0 96 80" version="1.1" x="0px" y="0px"><g><path d="m 12.975734,30.094496 q 0,-0.637696 0.228089,-1.17336 0.253433,-0.561172 0.658924,-0.969297 0.405492,-0.433633 0.9377,-0.663203 0.557551,-0.255078 1.191132,-0.255078 0.633581,0 1.165788,0.255078 0.557552,0.22957 0.963043,0.663203 0.430836,0.408125 0.658924,0.969297 0.253433,0.535664 0.253433,1.17336 0,0.637695 -0.253433,1.198867 -0.228088,0.535664 -0.658924,0.94379 -0.405491,0.408125 -0.963043,0.663203 -0.532207,0.22957 -1.165788,0.22957 -0.633581,0 -1.191132,-0.22957 -0.532208,-0.255078 -0.9377,-0.663203 -0.405491,-0.408126 -0.658924,-0.94379 -0.228089,-0.561172 -0.228089,-1.198867 z m 3.015845,16.299496 q -3.29462,0 -6.2090918,-1.249884 Q 6.8680156,43.868717 4.6884978,41.700553 2.5343232,39.50688 1.2671617,36.598989 1.0397107e-7,33.66559 1.0397107e-7,30.349574 q 0,-3.316016 1.26716159602893,-6.223908 1.2671615,-2.933399 3.4213361,-5.101563 2.1795178,-2.193673 5.0939894,-3.443556 2.9144718,-1.275391 6.2090918,-1.275391 3.29462,0 6.209092,1.275391 2.914471,1.249883 5.068645,3.443556 2.179519,2.168164 3.44668,5.101563 1.267162,2.907892 1.267162,6.223908 0,3.316016 -1.267162,6.249415 -1.267161,2.907891 -3.44668,5.101564 -2.154174,2.168164 -5.068645,3.443555 -2.914472,1.249884 -6.209092,1.249884 z m 0,-29.104421 q -2.635697,0 -4.94193,1.020313 -2.280891,0.994805 -3.9788874,2.729337 -1.6979965,1.734531 -2.6863825,4.08125 -0.9630429,2.321212 -0.9630429,4.974025 0,2.652812 0.9630429,4.974024 0.988386,2.295704 2.6863825,4.030236 1.6979964,1.709023 3.9788874,2.703828 2.306233,0.994805 4.94193,0.994805 2.635696,0 4.916587,-0.994805 2.306234,-0.994805 4.00423,-2.703828 1.697997,-1.734532 2.66104,-4.030236 0.988385,-2.321212 0.988385,-4.974024 0,-2.652813 -0.988385,-4.974025 -0.963043,-2.346719 -2.66104,-4.08125 -1.697996,-1.734532 -4.00423,-2.729337 -2.280891,-1.020313 -4.916587,-1.020313 z M 27.700152,3.9999981 q 1.216475,0.7652345 2.027458,1.6325003 0.836327,0.841758 1.317848,1.7600394 0.506864,0.8927737 0.70961,1.7855473 0.22809,0.8672659 0.22809,1.6580079 0,1.122344 -0.405492,2.321212 -0.380148,1.198867 -1.241819,2.193672 -0.86167,0.994805 -2.230204,1.658008 -1.368534,0.637696 -3.29462,0.637696 H 13.431912 v -3.341525 h 10.998962 q 1.064417,0 1.824713,-0.331602 0.760297,-0.357108 1.241819,-0.892772 0.506864,-0.535665 0.734953,-1.17336 0.253433,-0.663204 0.253433,-1.300899 0,-0.7652346 -0.22809,-1.3774223 Q 28.054956,8.5914053 27.674808,8.1067568 27.320003,7.5966003 26.838481,7.1629675 26.35696,6.7293345 25.824753,6.3467173 Z M 15.307311,17.646681 H 1.0397107e-7 V 14.305156 H 15.307311 Z" style="" fill-opacity="1" stroke="none"/><path d="m 60.975814,55.959423 v 2.040626 H 35.024345 v -2.040626 z" style="" fill-opacity="1" stroke="none"/><path d="m 76.992738,30.094496 q 0,-0.637696 0.228089,-1.17336 0.253433,-0.561172 0.658924,-0.969297 0.405492,-0.433633 0.937699,-0.663203 0.557552,-0.255078 1.191133,-0.255078 0.63358,0 1.165788,0.255078 0.557551,0.22957 0.963043,0.663203 0.430835,0.408125 0.658924,0.969297 0.253432,0.535664 0.253432,1.17336 0,0.637695 -0.253432,1.198867 -0.228089,0.535664 -0.658924,0.94379 -0.405492,0.408125 -0.963043,0.663203 -0.532208,0.22957 -1.165788,0.22957 -0.633581,0 -1.191133,-0.22957 -0.532207,-0.255078 -0.937699,-0.663203 -0.405491,-0.408126 -0.658924,-0.94379 -0.228089,-0.561172 -0.228089,-1.198867 z m 3.015845,16.299496 q -3.29462,0 -6.209092,-1.249884 -2.914472,-1.275391 -5.09399,-3.443555 -2.154174,-2.193673 -3.421336,-5.101564 -1.267161,-2.933399 -1.267161,-6.249415 0,-3.316016 1.267161,-6.223908 1.267162,-2.933399 3.421336,-5.101563 2.179518,-2.193673 5.09399,-3.443556 2.914472,-1.275391 6.209092,-1.275391 3.29462,0 6.209091,1.275391 2.914472,1.249883 5.068646,3.443556 2.179518,2.168164 3.44668,5.101563 1.267162,2.907892 1.267162,6.223908 0,3.316016 -1.267162,6.249415 -1.267162,2.907891 -3.44668,5.101564 -2.154174,2.168164 -5.068646,3.443555 -2.914471,1.249884 -6.209091,1.249884 z m 0,-29.104421 q -2.635697,0 -4.941931,1.020313 -2.280891,0.994805 -3.978887,2.729337 -1.697996,1.734531 -2.686382,4.08125 -0.963043,2.321212 -0.963043,4.974025 0,2.652812 0.963043,4.974024 0.988386,2.295704 2.686382,4.030236 1.697996,1.709023 3.978887,2.703828 2.306234,0.994805 4.941931,0.994805 2.635695,0 4.916587,-0.994805 2.306233,-0.994805 4.004229,-2.703828 1.697998,-1.734532 2.66104,-4.030236 0.988386,-2.321212 0.988386,-4.974024 0,-2.652813 -0.988386,-4.974025 -0.963042,-2.346719 -2.66104,-4.08125 -1.697996,-1.734532 -4.004229,-2.729337 -2.280892,-1.020313 -4.916587,-1.020313 z M 91.717155,3.9999981 q 1.216475,0.7652345 2.027459,1.6325003 0.836326,0.841758 1.317847,1.7600394 0.506865,0.8927737 0.709611,1.7855473 0.22809,0.8672659 0.22809,1.6580079 0,1.122344 -0.405493,2.321212 -0.380149,1.198867 -1.241818,2.193672 -0.86167,0.994805 -2.230204,1.658008 -1.368534,0.637696 -3.29462,0.637696 H 77.448916 v -3.341525 h 10.998962 q 1.064416,0 1.824713,-0.331602 0.760297,-0.357108 1.241818,-0.892772 0.506865,-0.535665 0.734954,-1.17336 0.253433,-0.663204 0.253433,-1.300899 0,-0.7652346 -0.22809,-1.3774223 Q 92.07196,8.5914053 91.691812,8.1067568 91.337007,7.5966003 90.855485,7.1629675 90.373964,6.7293345 89.841756,6.3467173 Z M 79.324315,17.646681 H 64.017004 v -3.341525 h 15.307311 z" style="" fill-opacity="1" stroke="none"/></g></svg>