<svg xmlns="http://www.w3.org/2000/svg"  viewBox="0 0 50 50" width="100px" height="100px"><path d="M25,2C12.317,2,2,12.317,2,25s10.317,23,23,23s23-10.317,23-23S37.683,2,25,2z M24.109,39.954 c-6.781,0-11.176-5.086-11.176-12.782c0-9.942,6.888-17.128,14.639-17.128c4.69,0,7.486,2.361,7.486,5.573 c0,3.313-2.395,5.658-4.436,5.658c-0.508,0-0.764-0.249-0.764-0.661c0-0.917,1.478-2.295,1.478-4.896 c0-2.192-1.338-3.569-3.53-3.569c-4.69,0-10.029,5.541-10.029,15.124c0,5.657,2.809,9.753,7.346,9.753 c3.924,0,7.314-2.816,9.277-6.797c0.174-0.35,0.341-0.51,0.531-0.51c0.275,0,0.538,0.236,0.538,0.75 C35.467,32.793,31.306,39.954,24.109,39.954z"/></svg>