<?xml version="1.0" encoding="UTF-8"?>
<!DOCTYPE svg PUBLIC "-//W3C//DTD SVG 1.1//EN" "http://www.w3.org/Graphics/SVG/1.1/DTD/svg11.dtd">
<svg xmlns="http://www.w3.org/2000/svg" version="1.1" width="90px" height="90px" style="shape-rendering:geometricPrecision; text-rendering:geometricPrecision; image-rendering:optimizeQuality; fill-rule:evenodd; clip-rule:evenodd" xmlns:xlink="http://www.w3.org/1999/xlink">
<g><path style="opacity:0.959" d="M 23.5,8.5 C 29.5,8.5 35.5,8.5 41.5,8.5C 41.5,9.5 41.5,10.5 41.5,11.5C 43.5,11.5 45.5,11.5 47.5,11.5C 47.5,10.5 47.5,9.5 47.5,8.5C 53.5,8.5 59.5,8.5 65.5,8.5C 65.5,10.5 65.5,12.5 65.5,14.5C 69.5,14.5 73.5,14.5 77.5,14.5C 77.5,20.5 77.5,26.5 77.5,32.5C 75.1667,32.5 72.8333,32.5 70.5,32.5C 70.5,28.5 70.5,24.5 70.5,20.5C 68.8333,20.5 67.1667,20.5 65.5,20.5C 65.5,24.5 65.5,28.5 65.5,32.5C 63.5,32.5 61.5,32.5 59.5,32.5C 59.5,26.5 59.5,20.5 59.5,14.5C 57.5,14.5 55.5,14.5 53.5,14.5C 53.5,22.1667 53.5,29.8333 53.5,37.5C 51.5,37.8333 49.5,38.1667 47.5,38.5C 47.5,31.5 47.5,24.5 47.5,17.5C 45.5,17.5 43.5,17.5 41.5,17.5C 41.5,24.5 41.5,31.5 41.5,38.5C 39.5,38.1667 37.5,37.8333 35.5,37.5C 35.5,29.8333 35.5,22.1667 35.5,14.5C 33.5,14.5 31.5,14.5 29.5,14.5C 29.5,20.5 29.5,26.5 29.5,32.5C 27.5,32.5 25.5,32.5 23.5,32.5C 23.5,28.5 23.5,24.5 23.5,20.5C 21.8333,20.5 20.1667,20.5 18.5,20.5C 18.5,24.5 18.5,28.5 18.5,32.5C 16.1667,32.5 13.8333,32.5 11.5,32.5C 11.5,26.5 11.5,20.5 11.5,14.5C 15.5,14.5 19.5,14.5 23.5,14.5C 23.5,12.5 23.5,10.5 23.5,8.5 Z"/></g>
<g><path style="opacity:0.916" d="M 11.5,38.5 C 17.8421,38.3338 24.1754,38.5005 30.5,39C 36.8454,43.2962 43.8454,44.6295 51.5,43C 53.9962,41.9196 56.3295,40.5862 58.5,39C 64.8246,38.5005 71.1579,38.3338 77.5,38.5C 76.1023,50.8876 74.2689,63.2209 72,75.5C 68.7743,78.282 65.1076,79.9486 61,80.5C 55.519,79.6698 50.019,79.0031 44.5,78.5C 37.5259,79.6644 30.5259,80.1644 23.5,80C 21.5,78.6667 19.5,77.3333 17.5,76C 14.802,63.6441 12.802,51.1441 11.5,38.5 Z M 35.5,51.5 C 39.6697,50.9928 42.6697,52.6595 44.5,56.5C 46.3259,52.4818 49.3259,50.9818 53.5,52C 57.4951,57.4926 59.1618,63.6593 58.5,70.5C 57.1667,70.5 55.8333,70.5 54.5,70.5C 54.4815,65.0773 53.8149,59.744 52.5,54.5C 51.1667,54.5 49.8333,54.5 48.5,54.5C 47.4456,59.1065 46.779,63.7732 46.5,68.5C 45.1667,68.5 43.8333,68.5 42.5,68.5C 42.221,63.7732 41.5544,59.1065 40.5,54.5C 39.1667,54.5 37.8333,54.5 36.5,54.5C 35.1851,59.744 34.5185,65.0773 34.5,70.5C 33.1667,70.5 31.8333,70.5 30.5,70.5C 29.9406,63.5223 31.6072,57.189 35.5,51.5 Z"/></g>
</svg>
