<svg xmlns:dc="http://purl.org/dc/elements/1.1/" xmlns:cc="http://creativecommons.org/ns#" xmlns:rdf="http://www.w3.org/1999/02/22-rdf-syntax-ns#" xmlns:svg="http://www.w3.org/2000/svg" xmlns="http://www.w3.org/2000/svg" xmlns:sodipodi="http://sodipodi.sourceforge.net/DTD/sodipodi-0.dtd" xmlns:inkscape="http://www.inkscape.org/namespaces/inkscape" version="1.1" x="0px" y="0px" viewBox="0 0 100 125"><g transform="translate(0,-952.36218)"><path style="font-size:medium;font-style:normal;font-variant:normal;font-weight:normal;font-stretch:normal;text-indent:0;text-align:start;text-decoration:none;line-height:normal;letter-spacing:normal;word-spacing:normal;text-transform:none;direction:ltr;block-progression:tb;writing-mode:lr-tb;text-anchor:start;baseline-shift:baseline;opacity:1;color:#000000;fill-opacity:1;stroke:none;stroke-width:6;marker:none;visibility:visible;display:inline;overflow:visible;enable-background:accumulate;font-family:Sans;-inkscape-font-specification:Sans" d="M 44 5 C 38.512685 5 34 9.51269 34 15 C 34 21.82149 37.790154 30.29012 41.78125 38.25 C 38.661564 48.015857 35.121424 58.481372 30.59375 67.3125 C 21.326754 70.948626 13.062439 73.651254 8.09375 77.65625 A 3.0002999 3.0002999 0 0 0 7.875 77.90625 C 6.0593123 79.76305 5 82.2911 5 85 C 5 90.4873 9.5126865 95 15 95 C 17.675847 95 20.258595 94.00145 22.125 92.09375 A 3.0002999 3.0002999 0 0 0 22.3125 91.9375 C 25.969955 87.570178 30.282532 79.647735 34.125 72.40625 C 42.980733 68.922631 52.262403 65.377924 61.21875 63.25 C 67.75706 68.519261 77.215872 72 85 72 C 90.48731 72 95 67.4873 95 62 C 95 56.5127 90.48731 52 85 52 C 78.757568 52 69.686065 54.228344 62.75 56.5625 C 57.127893 51.284596 51.962552 44.692878 48.25 37.6875 C 50.902578 29.516017 54 21.339709 54 15 C 54 9.51269 49.487316 5 44 5 z M 44 11 C 46.244672 11 48 12.75533 48 15 C 48 18.00143 46.392767 23.52751 44.53125 29.46875 C 42.043834 23.68903 40 18.14387 40 15 C 40 12.75533 41.755329 11 44 11 z M 45.71875 45.21875 C 48.726412 50.0029 52.248982 54.45465 56.09375 58.40625 C 50.163479 60.02785 44.371775 62.10565 38.65625 64.28125 C 41.416772 58.05065 43.626712 51.5853 45.71875 45.21875 z M 85 58 C 87.244676 58 89 59.7553 89 62 C 89 64.2447 87.244676 66 85 66 C 80.493661 66 74.088871 63.9658 68.96875 61.125 C 74.845816 59.4632 81.25869 58 85 58 z M 25.3125 75.90625 C 22.500384 80.92585 19.705131 85.61105 17.75 87.96875 C 17.082125 88.60735 16.193682 89 15 89 C 12.755327 89 11 87.2446 11 85 C 11 83.9437 11.448945 82.89455 12.0625 82.21875 C 14.408366 80.40335 19.51191 78.22785 25.3125 75.90625 z " transform="translate(0,952.36218)"/></g></svg>