<svg xmlns="http://www.w3.org/2000/svg" xmlns:xlink="http://www.w3.org/1999/xlink" version="1.1" x="0px" y="0px" viewBox="0 0 96 120" style="enable-background:new 0 0 96 96;" xml:space="preserve"><path d="M55.4,41.8c0-4.1-3.3-7.4-7.4-7.4c-4.1,0-7.4,3.3-7.4,7.4c0,4.1,3.3,7.4,7.4,7.4C52,49.2,55.4,45.9,55.4,41.8z M44.5,41.8  c0-1.9,1.5-3.4,3.4-3.4c1.9,0,3.4,1.5,3.4,3.4c0,1.9-1.5,3.4-3.4,3.4C46,45.2,44.5,43.7,44.5,41.8z M82.9,67.1  c-1.2-21-11.4-40.5-28-53.6c0,0,0,0,0,0c-1.1-0.9-2.5-1.4-3.9-1.4c-1.9,0-3.7,0.8-5.1,2.1c-1.3,1.4-2.1,3.2-2,5.1l0,1L12.2,63.8  c-1.3,1.8-1.5,4.2-0.5,6.3c1,2,3.1,3.3,5.3,3.3h5.1c1.1,0,2,0.9,2,2v0.5c0,3.3,2.7,6,6,6s6-2.7,6-6v-0.5c0-1.1,0.9-2,2-2h38.7  c1.7,0,3.2-0.7,4.4-1.9C82.4,70.3,83,68.7,82.9,67.1z M31.1,52.8c0,1.9-1.5,3.4-3.4,3.4c-1.5,0-2.8-0.9-3.2-2.3l3.3-4.6  C29.6,49.4,31.1,50.9,31.1,52.8z M78.4,68.7c-0.4,0.4-0.9,0.6-1.5,0.6H38.2c-3.3,0-6,2.7-6,6v0.5c0,1.1-0.9,2-2,2s-2-0.9-2-2v-0.5  c0-3.3-2.7-6-6-6h-5.1c-0.8,0-1.4-0.4-1.8-1.1s-0.3-1.5,0.2-2.1l6.4-8.8c1.4,1.7,3.5,2.8,5.8,2.8c4.1,0,7.4-3.3,7.4-7.4  c0-3.2-2-5.9-4.8-6.9l16-22c13,10.2,21.3,25.2,22.9,41.5h4C71.6,47.5,62.3,30.9,47.9,20l0-0.7c0-0.8,0.3-1.6,0.9-2.3  c0.6-0.6,1.4-0.9,2.2-0.9c0.5,0,1.1,0.2,1.5,0.5C68.1,29,77.8,47.5,78.9,67.3C78.9,67.8,78.7,68.3,78.4,68.7z M59.5,63  c0,0.8-0.1,1.6-0.4,2.4h-4.6c0.6-0.6,1-1.5,1-2.4c0-1.9-1.5-3.4-3.4-3.4c-1.9,0-3.4,1.5-3.4,3.4c0,0.9,0.4,1.8,1,2.4H45  c-0.3-0.8-0.4-1.6-0.4-2.4c0-4.1,3.3-7.4,7.4-7.4C56.2,55.5,59.5,58.9,59.5,63z"/></svg>