<svg xmlns="http://www.w3.org/2000/svg" data-name="Layer 1" viewBox="0 0 100 125" x="0px" y="0px"><path d="M69.29,21a7,7,0,0,0-4.95-2H39a9,9,0,0,0-9,9V41a3,3,0,0,0,6,0V28a3,3,0,0,1,3-3H64.76L76,36.24V72a3,3,0,0,1-3,3H67a3,3,0,1,0,0,6h6a9,9,0,0,0,9-9V36.66a7,7,0,0,0-2-5Z"/><path d="M48.12,53.88a3,3,0,0,0-4.65.5,3.06,3.06,0,0,0,.48,3.82l5.8,5.8L53,67l-9,8.72a3.16,3.16,0,0,0-.51,4,3,3,0,0,0,4.6.42l9.19-9.19a5.67,5.67,0,0,0,1.29-1.86,5.45,5.45,0,0,0-1.18-5.9Z"/><path d="M27.24,70,24,67l9-8.72a3.16,3.16,0,0,0,.51-4,3,3,0,0,0-4.6-.42l-9.19,9.19a5.67,5.67,0,0,0-1.29,1.86,5.45,5.45,0,0,0,1.18,5.9l9.29,9.29a3,3,0,0,0,4.65-.5A3.06,3.06,0,0,0,33,75.8Z"/></svg>