<svg xmlns="http://www.w3.org/2000/svg"  viewBox="0 0 48 48" width="96px" height="96px"><path d="M 25.5 7.1308594 C 23.791667 7.1308594 22.320482 7.8235396 21.378906 8.8828125 C 20.437331 9.9420854 20 11.297526 20 12.630859 C 20 13.488741 20.202118 14.347839 20.582031 15.138672 C 20.554118 15.137995 20.528059 15.130859 20.5 15.130859 L 7.5 15.130859 C 5.5850452 15.130859 4 16.715905 4 18.630859 L 4 31.630859 C 4 33.545814 5.5850452 35.130859 7.5 35.130859 L 15.314453 35.130859 C 16.435635 39.719879 20.582561 43.130859 25.5 43.130859 C 29.515279 43.130859 33.014046 40.851283 34.779297 37.523438 C 35.610386 37.90883 36.531685 38.130859 37.5 38.130859 C 41.071594 38.130859 44 35.202454 44 31.630859 L 44 21.630859 A 1.50015 1.50015 0 0 0 42.5 20.130859 L 34.5 20.130859 L 24 20.130859 L 24 18.630859 C 24 18.385689 23.971203 18.147736 23.921875 17.916016 C 24.417231 18.051603 24.94442 18.130859 25.5 18.130859 C 27.208333 18.130859 28.679518 17.436226 29.621094 16.376953 C 30.562669 15.31768 31 13.964193 31 12.630859 C 31 11.297526 30.562669 9.9420854 29.621094 8.8828125 C 28.679518 7.8235396 27.208333 7.1308594 25.5 7.1308594 z M 37.5 9.1308594 C 36.125 9.1308594 34.903815 9.6985401 34.128906 10.570312 C 33.353997 11.442085 33 12.547526 33 13.630859 C 33 14.714193 33.353997 15.81768 34.128906 16.689453 C 34.903815 17.561226 36.125 18.130859 37.5 18.130859 C 38.875 18.130859 40.096185 17.561226 40.871094 16.689453 C 41.646003 15.81768 42 14.714193 42 13.630859 C 42 12.547526 41.646003 11.442085 40.871094 10.570312 C 40.096185 9.6985401 38.875 9.1308594 37.5 9.1308594 z M 25.5 10.130859 C 26.458333 10.130859 26.987149 10.436226 27.378906 10.876953 C 27.770664 11.31768 28 11.964193 28 12.630859 C 28 13.297526 27.770664 13.942085 27.378906 14.382812 C 26.987149 14.823541 26.458333 15.130859 25.5 15.130859 C 24.541667 15.130859 24.012851 14.823541 23.621094 14.382812 C 23.229336 13.942086 23 13.297526 23 12.630859 C 23 11.964193 23.229336 11.31768 23.621094 10.876953 C 24.012851 10.436226 24.541667 10.130859 25.5 10.130859 z M 37.5 12.130859 C 38.124999 12.130859 38.403816 12.311226 38.628906 12.564453 C 38.853997 12.81768 39 13.214193 39 13.630859 C 39 14.047526 38.853997 14.442085 38.628906 14.695312 C 38.403816 14.948541 38.124999 15.130859 37.5 15.130859 C 36.875001 15.130859 36.596184 14.948541 36.371094 14.695312 C 36.146003 14.442086 36 14.047526 36 13.630859 C 36 13.214193 36.146003 12.81768 36.371094 12.564453 C 36.596184 12.311226 36.875001 12.130859 37.5 12.130859 z M 7.5 18.130859 L 20.5 18.130859 C 20.795045 18.130859 21 18.335814 21 18.630859 L 21 21.384766 A 1.50015 1.50015 0 0 0 21 21.871094 L 21 31.630859 C 21 31.925905 20.795045 32.130859 20.5 32.130859 L 16.746094 32.130859 A 1.50015 1.50015 0 0 0 16.363281 32.130859 L 7.5 32.130859 C 7.2049548 32.130859 7 31.925905 7 31.630859 L 7 18.630859 C 7 18.335814 7.2049548 18.130859 7.5 18.130859 z M 11 20.130859 C 10.448 20.130859 10 20.578859 10 21.130859 C 10 21.683859 10.448 22.130859 11 22.130859 L 13 22.130859 L 13 29.130859 C 13 29.682859 13.448 30.130859 14 30.130859 C 14.552 30.130859 15 29.683859 15 29.130859 L 15 22.130859 L 17 22.130859 C 17.552 22.130859 18 21.682859 18 21.130859 C 18 20.578859 17.552 20.130859 17 20.130859 L 11 20.130859 z M 24 23.130859 L 33 23.130859 L 33 32.630859 C 33 33.344469 32.894896 34.030903 32.710938 34.683594 A 1.50015 1.50015 0 0 0 32.613281 35.007812 C 31.624168 37.991206 28.826351 40.130859 25.5 40.130859 C 22.223283 40.130859 19.461092 38.042508 18.4375 35.130859 L 20.5 35.130859 C 22.414955 35.130859 24 33.545814 24 31.630859 L 24 23.130859 z M 36 23.130859 L 41 23.130859 L 41 31.630859 C 41 33.579265 39.448406 35.130859 37.5 35.130859 C 36.877882 35.130859 36.301254 34.956688 35.796875 34.671875 C 35.928094 34.011131 36 33.329017 36 32.630859 L 36 23.130859 z"/></svg>