<svg xmlns="http://www.w3.org/2000/svg" viewBox="0 0 59 76.25" fill="none" x="0px" y="0px"><path fill-rule="evenodd" clip-rule="evenodd" d="M12.06 56.092C12.1051 54.5129 13.4218 53.2694 15.0009 53.3145L47.3858 54.2398C48.9649 54.2849 50.2084 55.6016 50.1633 57.1807C50.1182 58.7597 48.8015 60.0033 47.2224 59.9581L14.8375 59.0328C13.2584 58.9877 12.0149 57.671 12.06 56.092Z" /><path fill-rule="evenodd" clip-rule="evenodd" d="M36.012 7.79933C37.5367 7.38601 39.1078 8.28695 39.5211 9.81165L48.099 41.4546C48.3416 42.3495 48.1354 43.3064 47.5458 44.022C46.9562 44.7375 46.0563 45.1229 45.1316 45.0559L18.826 43.1497C17.2504 43.0355 16.0657 41.6657 16.1798 40.0901C16.294 38.5145 17.6638 37.3298 19.2394 37.4439L41.5224 39.0586L33.9997 11.3084C33.5864 9.78372 34.4873 8.21265 36.012 7.79933Z"/><path d="M12.4517 5.89993C12.4517 9.1364 9.82805 11.7601 6.59158 11.7601C3.35512 11.7601 0.731445 9.1364 0.731445 5.89993C0.731445 2.66347 3.35512 0.0397949 6.59158 0.0397949C9.82805 0.0397949 12.4517 2.66347 12.4517 5.89993Z"/><path d="M58.0991 6.36259C58.0991 9.34354 55.6825 11.7601 52.7016 11.7601C49.7206 11.7601 47.3041 9.34354 47.3041 6.36259C47.3041 3.38163 49.7206 0.965088 52.7016 0.965088C55.6825 0.965088 58.0991 3.38163 58.0991 6.36259Z" /></svg>